<?xml version="1.0" encoding="UTF-8"?>
<mxfile host="app.diagrams.net" modified="2025-10-23T11:04:39.261497Z" agent="python-user-visible" version="22.1.0" type="device">

  <diagram id="Identity_Access_v1" name="Identity_Access_v1">
    <mxGraphModel dx="1280" dy="720" grid="1" gridSize="10" guides="1" tooltips="1" connect="1" arrows="1" fold="1" page="1" pageScale="1" pageWidth="1920" pageHeight="1080" background="#ffffff">
      <root>
        <mxCell id="0"/><mxCell id="1" parent="0"/>
        <mxCell id="zoneIdP" value="Identity &amp; Access Zone" style="rounded=1;whiteSpace=wrap;html=1;strokeColor:#6a1b9a;fillColor:#f3e5f5;" vertex="1" parent="1"><mxGeometry x="40" y="40" width="560" height="300" as="geometry"/></mxCell><mxCell id="user" value="User" style="shape=ellipse;whiteSpace=wrap;html=1;strokeColor:#666;fillColor:#fff;" vertex="1" parent="1"><mxGeometry x="80" y="80" width="160" height="60" as="geometry"/></mxCell><mxCell id="app" value="SaaS App" style="shape=process;whiteSpace=wrap;html=1;strokeColor:#0d47a1;fillColor:#e3f2fd;" vertex="1" parent="1"><mxGeometry x="360" y="80" width="200" height="60" as="geometry"/></mxCell><mxCell id="idp" value="IdP / SSO (MFA, CA)" style="shape=process;whiteSpace=wrap;html=1;strokeColor:#6a1b9a;fillColor:#ead7f7;" vertex="1" parent="1"><mxGeometry x="200" y="180" width="240" height="60" as="geometry"/></mxCell><mxCell id="mfa" value="MFA (Authenticator/FIDO)" style="shape=process;whiteSpace=wrap;html=1;strokeColor:#6a1b9a;fillColor:#ead7f7;" vertex="1" parent="1"><mxGeometry x="200" y="260" width="240" height="60" as="geometry"/></mxCell><mxCell id="sso1" edge="1" parent="1" source="user" target="app" value="1" style="endArrow=classic;strokeColor=#6a1b9a;"><mxGeometry relative="1" as="geometry"/></mxCell><mxCell id="sso2" edge="1" parent="1" source="app" target="idp" value="2" style="dashed=1;endArrow=classic;strokeColor=#6a1b9a;"><mxGeometry relative="1" as="geometry"/></mxCell><mxCell id="sso3" edge="1" parent="1" source="user" target="mfa" value="3" style="dashed=1;endArrow=classic;strokeColor=#6a1b9a;"><mxGeometry relative="1" as="geometry"/></mxCell><mxCell id="sso4" edge="1" parent="1" source="idp" target="app" value="4" style="dashed=1;endArrow=classic;strokeColor=#6a1b9a;"><mxGeometry relative="1" as="geometry"/></mxCell><mxCell id="sso5" edge="1" parent="1" source="idp" target="app" value="8" style="dashed=1;dashPattern=1 4;endArrow=classic;strokeColor=#ad1457;"><mxGeometry relative="1" as="geometry"/></mxCell>
      </root>
    </mxGraphModel>
  </diagram>

</mxfile>
